<?xml version="1.0" standalone="no"?>
<!DOCTYPE svg PUBLIC "-//W3C//DTD SVG 20010904//EN"
 "http://www.w3.org/TR/2001/REC-SVG-20010904/DTD/svg10.dtd">
<svg version="1.0" xmlns="http://www.w3.org/2000/svg"
 width="512.000000pt" height="512.000000pt" viewBox="0 0 512.000000 512.000000"
 preserveAspectRatio="xMidYMid meet">

<g transform="translate(0.000000,512.000000) scale(0.100000,-0.100000)"
fill="#000000" stroke="none">
<path d="M1467 4938 c-15 -16 -32 -64 -56 -160 l-33 -138 -584 0 -585 0 -24
-25 -25 -24 0 -1071 0 -1071 25 -24 c23 -24 29 -25 160 -25 l135 0 0 -135 c0
-131 1 -137 25 -160 22 -23 31 -25 128 -25 l105 0 -129 -512 c-71 -282 -129
-523 -129 -536 0 -13 11 -34 25 -47 24 -25 26 -25 215 -25 185 0 192 1 213 22
16 17 36 78 76 241 l53 217 474 0 474 0 0 -40 c0 -34 -3 -40 -20 -40 -12 0
-32 -11 -45 -25 l-25 -24 0 -271 0 -271 25 -24 c16 -17 35 -25 58 -25 l34 0 7
-98 c3 -53 8 -162 12 -242 3 -80 10 -157 15 -171 17 -43 46 -49 240 -49 l180
0 26 26 26 26 46 -23 c42 -21 62 -24 211 -27 l165 -3 360 85 361 84 354 -85
355 -85 165 4 165 3 63 34 c70 38 100 69 140 145 l27 51 0 835 0 835 -23 58
c-32 79 -116 168 -195 207 -50 24 -120 40 -357 83 l-295 53 -3 141 -3 140 43
28 c156 102 274 262 323 436 l19 67 53 5 c62 6 163 57 199 100 14 16 37 53 52
81 23 44 27 62 26 136 -1 54 -7 98 -17 120 -24 54 -73 116 -105 136 l-30 17
-5 176 c-4 135 -10 194 -25 251 -93 337 -362 586 -697 645 -118 20 -367 20
-476 -1 -173 -33 -329 -114 -457 -239 l-66 -65 -307 0 -307 0 -33 138 c-24 96
-41 144 -56 160 -22 22 -22 22 -373 22 -351 0 -351 0 -373 -22z m251 -218
l-20 -80 -78 0 -78 0 20 80 20 80 78 0 78 0 -20 -80z m400 0 l20 -80 -78 0
-78 0 -20 80 -20 80 78 0 78 0 20 -80z m1857 47 c114 -38 198 -90 290 -182 92
-92 144 -176 181 -290 22 -66 27 -106 32 -227 l5 -148 -31 0 c-24 0 -45 14
-105 74 -126 125 -213 279 -257 454 -21 84 -43 112 -90 112 -15 0 -37 -8 -48
-17 -11 -10 -84 -137 -162 -283 -78 -146 -162 -292 -185 -325 -49 -69 -179
-197 -245 -242 -113 -76 -289 -144 -417 -161 l-63 -9 0 308 c0 326 7 397 50
512 50 133 186 290 313 361 144 81 223 96 462 92 173 -3 197 -5 270 -29z
m-1171 -309 c-3 -13 -12 -35 -20 -49 -37 -74 -56 -184 -62 -359 l-5 -175 -40
-30 c-52 -38 -104 -133 -113 -203 -6 -50 3 -122 22 -167 4 -11 -21 7 -57 40
-79 73 -162 119 -265 145 -64 17 -111 20 -271 20 l-195 0 -29 -29 c-16 -16
-29 -39 -29 -51 0 -30 53 -80 85 -80 31 0 75 -41 75 -69 0 -11 -12 -56 -26
-98 -19 -55 -28 -108 -32 -179 -9 -179 39 -325 157 -481 42 -56 61 -90 59
-105 l-3 -23 -867 -3 -868 -2 0 960 0 960 1246 0 1245 0 -7 -22z m1214 -277
c59 -117 116 -196 214 -296 l88 -90 0 -210 c0 -247 -11 -312 -71 -435 -103
-209 -332 -350 -569 -350 -310 0 -587 239 -633 545 l-6 40 81 23 c180 50 351
153 493 296 106 108 153 176 270 394 48 89 89 162 90 162 2 0 22 -35 43 -79z
m551 -449 c49 -36 66 -70 66 -132 0 -44 -5 -66 -21 -86 -28 -39 -63 -63 -101
-70 l-33 -6 0 162 0 163 33 -7 c17 -3 43 -14 56 -24z m-2344 -226 c81 -21 151
-62 210 -122 56 -57 65 -74 42 -74 -7 0 -44 -16 -83 -35 -38 -19 -77 -35 -88
-35 -10 0 -53 16 -96 35 -56 25 -92 35 -129 35 -28 0 -51 1 -51 3 0 2 7 25 16
51 11 33 15 65 11 102 l-6 54 62 0 c34 0 85 -6 112 -14z m524 -196 c24 -12 67
-24 96 -27 l52 -5 12 -52 c43 -173 180 -357 344 -461 26 -17 27 -20 27 -111
l0 -94 -365 0 -365 0 0 35 c0 23 13 57 40 99 91 150 130 264 130 386 0 76 -28
198 -60 260 l-22 42 34 -25 c18 -13 53 -35 77 -47z m-193 -176 c8 -30 -1 -133
-16 -184 -5 -19 -34 -78 -64 -130 l-54 -95 -120 -3 -120 -3 -50 63 c-81 103
-132 226 -132 319 0 30 4 38 23 43 43 11 76 6 143 -26 58 -28 80 -33 139 -32
60 0 81 6 145 37 41 20 80 37 87 37 7 0 16 -12 19 -26z m1124 -487 c90 0 153
5 188 15 l52 15 0 -152 c0 -111 4 -156 14 -170 12 -16 -1 -40 -116 -224 -71
-113 -132 -207 -136 -209 -5 -1 -66 90 -137 203 -117 189 -127 208 -116 231 6
15 11 84 11 173 l0 148 53 -15 c34 -10 97 -15 187 -15z m-1286 -129 c11 -78
25 -281 32 -440 l7 -158 -132 0 -131 0 6 113 c3 61 12 196 20 299 8 103 14
196 14 207 0 20 6 21 89 21 l90 0 5 -42z m-358 -155 c-3 -21 -6 -57 -6 -80 l0
-43 -695 0 -695 0 0 80 0 80 701 0 702 0 -7 -37z m754 16 c-58 -11 -129 -31
-159 -44 -29 -14 -55 -25 -57 -25 -2 0 -4 20 -4 45 l0 45 163 -1 162 -1 -105
-19z m649 -384 c147 -237 192 -302 214 -309 59 -21 69 -9 266 306 102 163 188
299 191 302 4 4 115 -13 188 -29 l22 -5 0 -302 0 -302 41 -58 c54 -77 87 -161
97 -247 l8 -71 -47 0 c-45 0 -52 -4 -248 -161 l-202 -161 -82 -9 c-72 -8 -126
-3 -448 39 l-366 48 -87 69 c-84 67 -86 69 -88 114 -6 155 19 255 92 364 l50
75 0 301 c0 166 1 301 3 302 80 16 194 36 201 35 4 -1 92 -136 195 -301z
m-559 -24 l0 -260 -40 -64 c-49 -78 -89 -191 -97 -274 -3 -35 -8 -63 -11 -63
-2 0 -17 11 -34 25 -20 17 -42 25 -66 25 l-37 0 0 368 c0 415 -3 399 78 446
24 14 73 32 108 40 110 24 99 52 99 -243z m1722 238 c68 -15 132 -60 165 -116
l28 -48 3 -383 3 -383 -88 3 -88 3 -6 70 c-9 91 -50 214 -100 293 l-39 63 0
261 0 260 38 -7 c20 -3 58 -11 84 -16z m-3664 -609 l-120 -480 -78 0 -78 0
120 480 120 480 78 0 78 0 -120 -480z m662 400 l0 -80 -209 0 -209 0 20 80 20
80 189 0 189 0 0 -80z m320 0 l0 -80 -80 0 -80 0 0 80 0 80 80 0 80 0 0 -80z
m90 -320 l0 -80 -454 0 -454 0 20 80 20 80 434 0 434 0 0 -80z m430 -89 c0
-93 -3 -183 -6 -200 l-6 -31 -129 0 -129 0 0 200 0 200 135 0 135 0 0 -169z
m368 -547 c107 -86 202 -158 211 -161 9 -2 396 -53 861 -113 465 -60 862 -113
883 -116 l39 -6 -4 -113 c-3 -123 -11 -144 -72 -189 -24 -19 -45 -21 -170 -24
l-142 -3 -545 130 c-299 71 -670 160 -824 196 l-280 67 -86 84 -86 84 -257 0
-256 0 0 160 0 160 266 0 267 0 195 -156z m1992 -80 l0 -156 -22 5 c-13 3
-157 22 -321 43 -163 21 -296 42 -295 46 2 4 62 55 133 113 l130 104 188 1
187 0 0 -156z m-2400 -301 c0 -32 -3 -122 -7 -200 l-6 -143 -83 0 -82 0 -6 83
c-3 45 -8 135 -12 200 l-6 117 101 0 101 0 0 -57z m602 -173 c175 -41 314 -77
310 -81 -4 -4 -89 -26 -189 -49 -174 -40 -187 -41 -320 -38 -136 3 -141 4
-177 32 -55 42 -66 76 -66 212 l0 117 63 -59 62 -59 317 -75z"/>
<path d="M480 4160 l0 -80 80 0 80 0 0 80 0 80 -80 0 -80 0 0 -80z"/>
<path d="M480 3440 l0 -480 80 0 80 0 0 480 0 480 -80 0 -80 0 0 -480z"/>
<path d="M3995 3831 c-45 -20 -70 -60 -70 -112 0 -42 5 -53 33 -81 28 -28 39
-33 82 -33 43 0 54 5 82 33 28 28 33 39 33 82 0 42 -5 54 -31 81 -33 33 -92
46 -129 30z"/>
<path d="M3440 3344 c0 -47 28 -102 75 -149 73 -74 151 -92 248 -59 77 26 157
132 157 208 0 13 -12 16 -77 16 -78 0 -78 0 -93 -33 -18 -38 -58 -55 -97 -41
-16 5 -34 23 -43 41 -15 33 -15 33 -92 33 -66 0 -78 -3 -78 -16z"/>
</g>
</svg>
