<?xml version="1.0" standalone="no"?>
<!DOCTYPE svg PUBLIC "-//W3C//DTD SVG 20010904//EN"
 "http://www.w3.org/TR/2001/REC-SVG-20010904/DTD/svg10.dtd">
<svg version="1.0" xmlns="http://www.w3.org/2000/svg"
 width="512.000000pt" height="512.000000pt" viewBox="0 0 512.000000 512.000000"
 preserveAspectRatio="xMidYMid meet">

<g transform="translate(0.000000,512.000000) scale(0.100000,-0.100000)"
fill="#000000" stroke="none">
<path d="M1160 4870 l0 -250 80 0 80 0 0 -286 0 -286 -202 5 c-163 3 -217 8
-273 24 -106 30 -190 69 -290 133 -110 71 -150 84 -246 78 -125 -7 -224 -74
-278 -188 l-26 -55 -3 -465 c-3 -498 1 -564 45 -719 22 -81 24 -97 13 -115
-46 -71 -55 -102 -55 -186 0 -66 5 -96 22 -132 46 -100 151 -180 253 -194 l47
-6 7 -74 c30 -333 245 -629 550 -759 l66 -28 -32 -35 c-17 -20 -43 -61 -57
-92 l-26 -55 -3 -343 c-3 -380 0 -407 61 -531 44 -91 150 -196 245 -243 129
-65 167 -69 607 -66 358 3 393 5 425 22 49 26 88 64 111 108 l19 38 160 0
c142 0 165 2 205 21 46 22 98 73 117 115 l11 24 1164 0 1163 0 0 250 0 250
-85 0 -85 0 0 1895 0 1895 85 0 85 0 0 250 0 250 -1980 0 -1980 0 0 -250z
m3790 0 l0 -80 -1815 0 -1815 0 0 80 0 80 1815 0 1815 0 0 -80z m-160 -2145
l0 -1895 -1016 0 c-809 0 -1015 3 -1011 13 3 6 89 207 191 446 197 459 200
467 155 507 -27 24 -84 23 -108 -1 -11 -11 -110 -232 -221 -491 l-201 -471
-113 -5 c-103 -5 -119 -8 -171 -36 l-57 -31 -47 26 c-47 27 -47 27 -64 107
-32 154 -140 325 -260 411 -31 22 -56 42 -57 45 0 3 32 16 71 30 190 64 378
225 483 412 60 108 116 312 116 424 0 6 21 15 47 19 107 16 195 82 245 182 28
58 33 77 32 143 0 76 -24 151 -59 190 -13 15 -13 23 5 74 59 171 72 408 31
561 -79 298 -309 538 -596 624 -106 31 -217 41 -467 41 l-228 0 0 285 0 285
1650 0 1650 0 0 -1895z m-4324 1346 c145 -97 310 -160 476 -181 47 -6 298 -10
578 -10 564 0 590 -3 744 -82 120 -62 237 -182 298 -305 64 -128 82 -214 75
-367 -5 -121 -33 -251 -52 -251 -6 1 -31 5 -57 9 l-48 8 0 54 c0 224 -149 404
-362 434 -35 5 -292 10 -571 10 l-508 0 -24 25 c-27 26 -31 54 -13 88 19 37
40 46 101 47 l58 0 -3 83 -3 82 -70 -1 c-38 -1 -86 -8 -106 -17 -54 -22 -105
-72 -126 -122 l-18 -45 -136 -45 c-149 -50 -205 -80 -261 -143 -79 -87 -108
-178 -108 -338 l0 -111 -43 -6 c-24 -3 -50 -9 -59 -12 -12 -5 -19 8 -34 62
-17 62 -19 115 -22 563 -2 272 0 505 3 517 3 12 17 36 32 54 64 76 145 76 259
0z m417 -756 c21 -25 57 -55 80 -68 42 -22 46 -22 607 -27 555 -5 566 -5 605
-27 46 -24 86 -65 108 -108 l15 -30 -312 0 -311 0 -52 -27 c-88 -47 -133 -125
-133 -233 l0 -65 -85 0 -85 0 0 63 c-1 113 -46 189 -138 234 l-57 28 -260 3
c-144 2 -284 -1 -313 -6 l-52 -9 0 41 c0 56 41 137 88 173 28 21 218 98 252
102 3 1 23 -19 43 -44z m244 -449 l28 -24 0 -241 c0 -237 0 -241 -23 -263 -22
-23 -24 -23 -308 -23 l-286 0 -19 24 c-18 21 -19 42 -19 266 l0 244 26 20 c26
20 39 21 300 21 l273 0 28 -24z m1158 -1 l25 -24 0 -238 c-1 -171 -4 -242 -13
-254 -28 -36 -51 -39 -322 -39 l-267 0 -29 29 -29 29 0 232 0 232 29 29 29 29
277 0 276 0 24 -25z m-1955 -305 l0 -160 -26 0 c-71 0 -134 76 -134 160 0 84
63 159 133 160 l27 0 0 -160z m2226 144 c46 -22 84 -87 84 -144 0 -76 -55
-146 -125 -157 l-35 -6 0 162 c0 157 1 161 21 161 12 0 36 -7 55 -16z m-1066
-256 c0 -130 14 -172 75 -231 68 -66 82 -68 432 -65 l312 3 -5 -40 c-10 -64
-59 -200 -95 -263 -19 -31 -74 -98 -124 -147 -104 -105 -203 -161 -343 -196
-76 -19 -105 -20 -370 -17 -267 4 -291 6 -352 27 -202 71 -347 194 -440 373
-36 69 -80 205 -80 247 0 14 32 16 305 13 202 -2 319 1 346 8 55 15 140 100
157 156 7 23 12 87 12 143 l0 101 85 0 85 0 0 -112z m-122 -1165 c53 -32 106
-110 116 -170 3 -21 6 -106 6 -188 l0 -150 -75 -112 c-41 -62 -75 -116 -75
-120 0 -14 133 -94 139 -85 3 5 35 53 70 106 l64 96 239 0 240 0 29 -29 29
-29 0 -182 c0 -196 -8 -234 -53 -245 -12 -3 -197 -5 -412 -3 l-390 3 -65 31
c-71 34 -147 103 -185 168 -48 82 -55 137 -55 446 0 165 4 301 10 322 17 59
69 120 130 151 49 25 63 28 123 24 52 -3 78 -11 115 -34z m369 -88 c28 -19 72
-56 98 -82 50 -52 122 -186 132 -245 l6 -38 -162 0 -161 0 0 149 c0 121 -4
161 -20 213 -11 34 -20 64 -20 66 0 7 82 -33 127 -63z m878 -560 c24 -23 25
-30 25 -140 0 -110 -1 -117 -25 -140 -23 -24 -29 -25 -165 -25 l-140 0 0 110
c0 94 3 117 21 153 32 62 42 66 157 67 96 0 105 -2 127 -25z m2335 -55 l0 -80
-1070 0 -1070 0 0 48 c0 26 -4 62 -9 80 l-10 32 1080 0 1079 0 0 -80z"/>
<path d="M3056 4444 c-103 -37 -157 -115 -164 -235 l-5 -79 87 0 86 0 0 58 c0
48 4 62 23 80 55 52 137 12 137 -66 0 -33 -14 -50 -165 -202 l-165 -166 0
-102 0 -102 248 2 247 3 3 83 3 82 -147 0 -147 0 122 124 c136 139 164 186
165 276 2 177 -168 303 -328 244z"/>
<path d="M4296 4446 c-58 -22 -108 -67 -138 -126 -23 -42 -28 -65 -28 -121 l0
-69 80 0 80 0 0 39 c0 50 18 99 40 111 60 32 130 -10 130 -76 0 -35 -11 -49
-165 -204 l-165 -166 0 -102 0 -102 245 0 245 0 0 85 0 85 -147 0 -148 0 132
133 c79 79 138 147 148 169 19 48 19 158 -1 206 -19 47 -68 98 -118 124 -51
26 -139 33 -190 14z"/>
<path d="M3630 4210 l0 -80 -80 0 -80 0 0 -85 0 -85 80 0 80 0 0 -80 0 -80 85
0 85 0 0 80 0 80 80 0 80 0 0 85 0 85 -80 0 -80 0 0 80 0 80 -85 0 -85 0 0
-80z"/>
<path d="M3390 3385 l0 -85 328 2 327 3 3 83 3 82 -331 0 -330 0 0 -85z"/>
<path d="M3390 3055 l0 -85 328 2 327 3 3 83 3 82 -331 0 -330 0 0 -85z"/>
<path d="M3300 2395 l0 -415 415 0 415 0 0 415 0 415 -415 0 -415 0 0 -415z
m660 0 l0 -245 -245 0 -245 0 0 245 0 245 245 0 245 0 0 -245z"/>
<path d="M3470 1735 l0 -85 575 0 575 0 0 85 0 85 -575 0 -575 0 0 -85z"/>
<path d="M3470 1405 l0 -85 575 0 575 0 0 85 0 85 -575 0 -575 0 0 -85z"/>
<path d="M3470 1075 l0 -85 575 0 575 0 0 85 0 85 -575 0 -575 0 0 -85z"/>
<path d="M780 2718 c-97 -17 -181 -101 -196 -195 l-7 -43 81 0 c78 0 81 1 94
27 31 65 104 68 143 6 20 -32 21 -32 98 -33 76 0 77 0 77 25 0 14 -7 42 -15
62 -47 113 -154 172 -275 151z"/>
<path d="M1936 2718 c-92 -13 -177 -97 -195 -190 l-8 -48 83 0 c69 0 84 3 84
15 0 27 47 65 78 65 36 0 82 -34 82 -61 0 -17 8 -19 86 -19 l86 0 -7 37 c-9
50 -31 91 -69 131 -56 61 -130 84 -220 70z"/>
<path d="M1076 1943 c23 -126 91 -215 201 -265 67 -31 189 -31 255 -1 101 46
183 153 195 254 l6 49 -80 0 -80 0 -11 -39 c-24 -78 -81 -121 -162 -121 -73 0
-143 56 -156 125 l-6 35 -85 0 -84 0 7 -37z"/>
</g>
</svg>
